
<svg width="29px" height="17px" viewBox="0 0 29 17" version="1.1" xmlns="http://www.w3.org/2000/svg" xmlns:xlink="http://www.w3.org/1999/xlink">
    <g id="Page-1" stroke="none" stroke-width="1" fill="none" fill-rule="evenodd">
        <g id="Group-2" fill-rule="nonzero">
            <g id="Group-6">
                <path d="M2.83333,0 L18.4167,0 C19.975,0 21.25,1.275 21.25,2.83333 L21.25,14.1667 C21.25,15.725 19.975,17 18.4167,17 L2.83333,17 C1.275,17 0,15.725 0,14.1667 L0,2.83333 C0,1.275 1.275,0 2.83333,0 Z" id="Shape" fill="#FF820E"></path>
                <polygon id="Shape" fill="#C86C18" points="28.3333 16.2916 21.25 12.0416 21.25 4.95831 28.3333 0.708313"></polygon>
            </g>
            <g id="Group" transform="translate(3.000000, 3.000000)" stroke-linecap="round" stroke-linejoin="round" stroke-width="1.59634">
                <path d="M15.0613,4.75867 C15.4396,5.25354 15.4396,5.9216 15.0613,6.41567 C13.8696,7.9713 11.0106,11.1743 7.67263,11.1743 C4.33469,11.1743 1.47566,7.9713 0.28399,6.41567 C0.09992,6.17872 0,5.88722 0,5.58717 C0,5.28713 0.09992,4.99562 0.28399,4.75867 C1.47566,3.20305 4.33469,0 7.67263,0 C11.0106,0 13.8696,3.20305 15.0613,4.75867 Z" id="Shape" stroke="#F39F53" fill="#FFFFFF"></path>
                <path d="M7.67267,7.98169 C8.99512,7.98169 10.0672,6.90964 10.0672,5.58719 C10.0672,4.26474 8.99512,3.19269 7.67267,3.19269 C6.35022,3.19269 5.27817,4.26474 5.27817,5.58719 C5.27817,6.90964 6.35022,7.98169 7.67267,7.98169 Z" id="Shape" stroke="#DA6900" fill="#FF820E"></path>
            </g>
        </g>
    </g>
</svg>
