<svg width="20" height="16" viewBox="0 0 20 16" fill="none" xmlns="http://www.w3.org/2000/svg">
<g clip-path="url(#clip0_70:477)">
<path d="M19 0H5C4.73478 0 4.48043 0.105357 4.29289 0.292893C4.10536 0.48043 4 0.734784 4 1V4H9V2H15V12H19C19.2652 12 19.5196 11.8946 19.7071 11.7071C19.8946 11.5196 20 11.2652 20 11V1C20 0.734784 19.8946 0.48043 19.7071 0.292893C19.5196 0.105357 19.2652 0 19 0V0ZM7.25 3.21875C7.25 3.29334 7.22037 3.36488 7.16762 3.41762C7.11488 3.47037 7.04334 3.5 6.96875 3.5H6.03125C5.95666 3.5 5.88512 3.47037 5.83238 3.41762C5.77963 3.36488 5.75 3.29334 5.75 3.21875V2.28125C5.75 2.20666 5.77963 2.13512 5.83238 2.08238C5.88512 2.02963 5.95666 2 6.03125 2H6.96875C7.04334 2 7.11488 2.02963 7.16762 2.08238C7.22037 2.13512 7.25 2.20666 7.25 2.28125V3.21875ZM18.25 9.71875C18.25 9.79334 18.2204 9.86488 18.1676 9.91762C18.1149 9.97037 18.0433 10 17.9688 10H17.0312C16.9567 10 16.8851 9.97037 16.8324 9.91762C16.7796 9.86488 16.75 9.79334 16.75 9.71875V8.78125C16.75 8.70666 16.7796 8.63512 16.8324 8.58238C16.8851 8.52963 16.9567 8.5 17.0312 8.5H17.9688C18.0433 8.5 18.1149 8.52963 18.1676 8.58238C18.2204 8.63512 18.25 8.70666 18.25 8.78125V9.71875ZM18.25 6.46875C18.25 6.54334 18.2204 6.61488 18.1676 6.66762C18.1149 6.72037 18.0433 6.75 17.9688 6.75H17.0312C16.9567 6.75 16.8851 6.72037 16.8324 6.66762C16.7796 6.61488 16.75 6.54334 16.75 6.46875V5.53125C16.75 5.45666 16.7796 5.38512 16.8324 5.33238C16.8851 5.27963 16.9567 5.25 17.0312 5.25H17.9688C18.0433 5.25 18.1149 5.27963 18.1676 5.33238C18.2204 5.38512 18.25 5.45666 18.25 5.53125V6.46875ZM18.25 3.21875C18.25 3.29334 18.2204 3.36488 18.1676 3.41762C18.1149 3.47037 18.0433 3.5 17.9688 3.5H17.0312C16.9567 3.5 16.8851 3.47037 16.8324 3.41762C16.7796 3.36488 16.75 3.29334 16.75 3.21875V2.28125C16.75 2.20666 16.7796 2.13512 16.8324 2.08238C16.8851 2.02963 16.9567 2 17.0312 2H17.9688C18.0433 2 18.1149 2.02963 18.1676 2.08238C18.2204 2.13512 18.25 2.20666 18.25 2.28125V3.21875ZM13 5H1C0.734784 5 0.48043 5.10536 0.292893 5.29289C0.105357 5.48043 0 5.73478 0 6L0 15C0 15.2652 0.105357 15.5196 0.292893 15.7071C0.48043 15.8946 0.734784 16 1 16H13C13.2652 16 13.5196 15.8946 13.7071 15.7071C13.8946 15.5196 14 15.2652 14 15V6C14 5.73478 13.8946 5.48043 13.7071 5.29289C13.5196 5.10536 13.2652 5 13 5ZM3 7C3.19778 7 3.39112 7.05865 3.55557 7.16853C3.72002 7.27841 3.84819 7.43459 3.92388 7.61732C3.99957 7.80004 4.01937 8.00111 3.98079 8.19509C3.9422 8.38907 3.84696 8.56725 3.70711 8.70711C3.56725 8.84696 3.38907 8.9422 3.19509 8.98079C3.00111 9.01937 2.80004 8.99957 2.61732 8.92388C2.43459 8.84819 2.27841 8.72002 2.16853 8.55557C2.05865 8.39112 2 8.19778 2 8C2 7.73478 2.10536 7.48043 2.29289 7.29289C2.48043 7.10536 2.73478 7 3 7ZM12 14H2V13L4 11L5 12L9 8L12 11V14Z" fill="#75D6FF"/>
</g>
<defs>
<clipPath id="clip0_70:477">
<rect width="20" height="16" fill="white"/>
</clipPath>
</defs>
</svg>
