<svg width="26" height="21" viewBox="0 0 26 21" fill="none" xmlns="http://www.w3.org/2000/svg">
<path d="M20.9577 3.43649H11.0952L8.62962 0.970886H2.46561C1.10952 0.970886 0 2.08041 0 3.43649V18.2301C0 19.5862 1.10952 20.6957 2.46561 20.6957H21.5741C22.6219 20.6957 23.4233 19.8944 23.4233 18.8465V5.9021C23.4233 4.54601 22.3137 3.43649 20.9577 3.43649Z" fill="#FFA000"/>
<path d="M23.5466 7.13489H6.96536C5.7942 7.13489 4.74632 7.99785 4.5614 9.16901L2.46563 20.6957H22.0056C23.1767 20.6957 24.2246 19.8328 24.4095 18.6616L25.9505 10.032C26.2587 8.55261 25.0876 7.13489 23.5466 7.13489Z" fill="#FFCA28"/>
</svg>
