<svg width="24" height="19" viewBox="0 0 24 19" fill="none" xmlns="http://www.w3.org/2000/svg">
<path d="M9.40627 5.36706V13.6329C9.40627 14.1069 9.92573 14.3969 10.3295 14.1505L16.5081 10.374C16.6579 10.2826 16.7817 10.1542 16.8676 10.0011C16.9536 9.84807 16.9987 9.6755 16.9987 9.49998C16.9987 9.32446 16.9536 9.15189 16.8676 8.99884C16.7817 8.84579 16.6579 8.7174 16.5081 8.626L10.3276 4.8514C10.2357 4.79562 10.1306 4.76528 10.0231 4.76347C9.91562 4.76166 9.80957 4.78846 9.71582 4.84112C9.62208 4.89378 9.54401 4.9704 9.48962 5.06315C9.43523 5.1559 9.40647 5.26144 9.40627 5.36896V5.36706ZM5.61461 0.020813C4.35759 0.020813 3.15206 0.52016 2.26321 1.409C1.37437 2.29785 0.875023 3.50338 0.875023 4.7604V14.2396C0.875023 15.4966 1.37437 16.7021 2.26321 17.591C3.15206 18.4798 4.35759 18.9791 5.61461 18.9791H18.8854C20.1425 18.9791 21.348 18.4798 22.2368 17.591C23.1257 16.7021 23.625 15.4966 23.625 14.2396V4.7604C23.625 3.50338 23.1257 2.29785 22.2368 1.409C21.348 0.52016 20.1425 0.020813 18.8854 0.020813H5.61461ZM2.77086 4.7604C2.77086 4.00619 3.07046 3.28287 3.60377 2.74956C4.13708 2.21625 4.8604 1.91665 5.61461 1.91665H18.8854C19.6396 1.91665 20.363 2.21625 20.8963 2.74956C21.4296 3.28287 21.7292 4.00619 21.7292 4.7604V14.2396C21.7292 14.9938 21.4296 15.7171 20.8963 16.2504C20.363 16.7837 19.6396 17.0833 18.8854 17.0833H5.61461C4.8604 17.0833 4.13708 16.7837 3.60377 16.2504C3.07046 15.7171 2.77086 14.9938 2.77086 14.2396V4.7604Z" fill="#6ADBFF"/>
</svg>
